# xmcd
#
# Track frame offsets:
#	150
#	12341
#	30273
#	49280
#	66438
#	87708
#	107470
#	124953
#	146319
#	167045
#	187402
#	206780
#	226114
#	244143
#
# Disc length: 3532 seconds
#
# Revision: 2
# Processed by: cddbd v1.5.1PL2 Copyright (c) Steve Scherf et al.
# Submitted via: dBpowerAMP V4.0
#
DISCID=c80dca0e
DTITLE=MayBee (메이비) - a LetTer frOm Abell1689
DYEAR=2006
DGENRE=Ballad
TTITLE0=2046
TTITLE1=미열
TTITLE2=숨
TTITLE3=다소 (多笑)
TTITLE4=내사랑 무덤까지 (feat. MC몽)
TTITLE5=I wisH...
TTITLE6=candy (feat. 이효리)
TTITLE7=잘가
TTITLE8=어제
TTITLE9=좋은사람 만나요 (feat. 환희)
TTITLE10=늦잠
TTITLE11=Love²
TTITLE12=해바라기
TTITLE13=a LetTer frOm Abell1689
EXTD=Fixed corruption of Unicode characters
EXTT0=
EXTT1=
EXTT2=
EXTT3=
EXTT4=
EXTT5=
EXTT6=
EXTT7=
EXTT8=
EXTT9=
EXTT10=
EXTT11=
EXTT12=
EXTT13=
PLAYORDER=
